#!OML:ASF H:\charlestonDancing\Project 1\Capture day 1\Session 1\femaleDancer.ASF
:FULLY-SPECIFIED
:DEGREES
1213
root -15.0448 17.5983 0.966921 119.518 -88.8481 -119.068
lowerback 7.23137 -0.810043 2.41074
upperback -1.99348 -0.891058 -0.663723
thorax -6.19276 -0.544178 -1.93741
lowerneck -0.407581 0.224506 3.86106
upperneck -7.13539 0.234191 -0.724743
head -2.16589 -0.00320293 -0.888297
rclavicle 2.07792e-015 -4.77083e-015
rhumerus -297.562 255.16 -86.7053
rradius 13.8545
rwrist 105.976
rhand -20.122 -29.5797
rfingers 7.12502
rthumb 186.222 120.532
lclavicle 2.07792e-015 -4.77083e-015
lhumerus -27.4142 46.8644 6.75503
lradius 12.9252
lwrist -38.8346
lhand -14.4523 23.5231
lfingers 7.12502
lthumb 11.693 53.1768
rfemur -10.4318 -3.52463 21.6133
rtibia 36.9371
rfoot -23.7295 -5.99761
rtoes -15.4101
lfemur -11.1128 -3.45064 -15.523
ltibia 37.5534
lfoot -19.9319 -5.31601
ltoes -21.9026
1214
root -15.0535 17.6069 1.01671 133.471 -89.0033 -132.601
lowerback 6.82605 -0.753007 2.14733
upperback -2.14542 -0.852531 -0.721301
thorax -6.11539 -0.517691 -1.85708
lowerneck -0.616058 0.177702 3.72025
upperneck -6.81768 0.171152 -0.577583
head -2.02532 -0.0291099 -0.813377
rclavicle -5.16064e-015 -1.11319e-014
rhumerus -297.3 255.09 -87.0168
rradius 13.8666
rwrist 105.732
rhand -20.0467 -29.7874
rfingers 7.12502
rthumb 186.295 120.326
lclavicle -5.16064e-015 -1.11319e-014
lhumerus -26.6026 44.3962 8.12361
lradius 13.2706
lwrist -35.6881
lhand -14.6378 23.9127
lfingers 7.12502
lthumb 11.5141 53.5764
rfemur -10.9707 -3.25089 21.1855
rtibia 37.0843
rfoot -23.4466 -6.15404
rtoes -15.5875
lfemur -11.4802 -2.70225 -15.8694
ltibia 37.3296
lfoot -19.5684 -5.88888
ltoes -21.8788
1215
root -15.0591 17.6122 1.06128 135.226 -88.7704 -134.103
lowerback 6.56714 -0.68194 2.2486
upperback -2.19677 -0.750186 -0.653198
thorax -6.01686 -0.469308 -1.85707
lowerneck -0.928726 0.102601 3.64362
upperneck -6.51336 0.0609 -0.509679
head -1.87316 -0.0792152 -0.774255
rclavicle 5.76165e-016 -6.95746e-015
rhumerus -297.588 255 -86.7661
rradius 13.9253
rwrist 105.53
rhand -19.9994 -30.225
rfingers 7.12502
rthumb 186.34 119.89
lclavicle 5.76165e-016 -6.95746e-015
lhumerus -27.5919 47.6562 6.5656
lradius 13.004
lwrist -38.7166
lhand -14.8643 23.5517
lfingers 7.12502
lthumb 11.2957 53.2275
rfemur -11.2934 -2.7717 21.2739
rtibia 37.147
rfoot -23.2371 -6.50642
rtoes -15.6318
lfemur -11.653 -2.1233 -15.745
ltibia 37.1683
lfoot -19.2881 -6.64037
ltoes -19.7964
1216
root -15.0693 17.6127 1.09202 132.274 -88.1547 -131.145
lowerback 6.60628 -0.547395 2.54763
upperback -2.24234 -0.531106 -0.459288
thorax -6.07783 -0.369864 -1.84829
lowerneck -1.1653 0.0177468 3.61654
upperneck -6.19688 -0.0627754 -0.554497
head -1.7324 -0.134139 -0.77995
rclavicle -5.85483e-015 1.98785e-015
rhumerus -296.177 254.98 -88.1983
rradius 13.9926
rwrist 105.136
rhand -20.2597 -30.3447
rfingers 7.12502
rthumb 186.089 119.763
lclavicle -5.85483e-015 1.98785e-015
lhumerus -27.6291 48.0855 6.49809
lradius 12.9952
lwrist -39.0952
lhand -14.8722 23.6976
lfingers 7.12502
lthumb 11.288 53.3739
rfemur -11.2625 -1.75231 21.8461
rtibia 37.0889
rfoot -23.1235 -7.18782
rtoes -15.3869
lfemur -11.5306 -1.63003 -15.2214
ltibia 37.0845
lfoot -19.2088 -7.13942
ltoes -18.399
1217
root -15.0819 17.6106 1.16748 127.257 -89.0041 -126.21
lowerback 6.68162 -0.767108 2.51224
upperback -2.27799 -0.839874 -0.697466
thorax -6.17823 -0.527535 -2.03977
lowerneck -1.30007 -0.0379115 3.57967
upperneck -5.99303 -0.14591 -0.659549
head -1.64565 -0.1694 -0.804578
rclavicle -1.75552e-014 -8.94531e-015
rhumerus -292.713 255.184 -91.7055
rradius 14.0165
rwrist 104.394
rhand -20.3685 -30.363
rfingers 7.12502
rthumb 185.984 119.741
lclavicle -1.75552e-014 -8.94531e-015
lhumerus -27.4864 47.4758 6.83413
lradius 13.0412
lwrist -38.736
lhand -14.7361 24.3461
lfingers 7.12502
lthumb 11.4192 54.0152
rfemur -10.9725 -3.26507 20.734
rtibia 37.0025
rfoot -23.4945 -6.33092
rtoes -15.7753
lfemur -11.3715 -1.80013 -16.1334
ltibia 37.001
lfoot -19.1361 -7.64924
ltoes -18.148
1218
root -15.097 17.611 1.20881 129.161 -88.9289 -128.299
lowerback 6.85057 -0.768805 2.54788
upperback -2.28117 -0.831826 -0.656754
thorax -6.27792 -0.525238 -2.01677
lowerneck -1.37537 -0.100875 3.48954
upperneck -5.89308 -0.232362 -0.65818
head -1.60204 -0.209079 -0.78731
rclavicle 3.4632e-015 0
rhumerus -290.758 255.31 -93.6376
rradius 13.9607
rwrist 104.076
rhand -20.331 -30.4305
rfingers 7.12502
rthumb 186.02 119.675
lclavicle 3.4632e-015 0
lhumerus -27.8188 47.5189 6.59534
lradius 13.0062
lwrist -39.3892
lhand -14.7255 24.3827
lfingers 7.12502
lthumb 11.4295 54.0511
rfemur -10.6359 -3.11483 20.6137
rtibia 36.8028
rfoot -23.4907 -6.46207
rtoes -16.1889
lfemur -11.1111 -1.64658 -16.2491
ltibia 37.0128
lfoot -19.321 -7.5951
ltoes -19.5606
1219
root -15.1078 17.6114 1.25013 124.548 -88.6819 -123.824
lowerback 6.99418 -0.778827 2.85273
upperback -2.2666 -0.806799 -0.564822
thorax -6.34744 -0.523553 -2.09411
lowerneck -1.38973 -0.170872 3.35948
upperneck -5.96767 -0.326658 -0.632089
head -1.62457 -0.255222 -0.7563
rclavicle -2.17421e-017 -1.98785e-016
rhumerus -292.82 255.162 -91.4397
rradius 13.881
rwrist 104.782
rhand -20.4473 -30.3764
rfingers 7.12502
rthumb 185.908 119.726
lclavicle -2.17421e-017 -1.98785e-016
lhumerus -27.8336 46.9003 6.79804
lradius 13.0145
lwrist -39.1282
lhand -15.0354 23.1618
lfingers 7.12502
lthumb 11.1306 52.8466
rfemur -10.3797 -2.92137 20.7613
rtibia 36.6603
rfoot -23.3323 -6.59984
rtoes -16.2297
lfemur -10.9223 -1.42472 -16.1084
ltibia 36.9928
lfoot -19.3988 -7.50525
ltoes -21.0127
1220
root -15.1151 17.6107 1.28568 118.689 -87.9824 -118.049
lowerback 7.05761 -0.769881 3.52938
upperback -2.21575 -0.71578 -0.34334
thorax -6.33285 -0.49984 -2.2541
lowerneck -1.28676 -0.146869 3.40315
upperneck -6.20869 -0.303305 -0.845933
head -1.72073 -0.244286 -0.832561
rclavicle -9.42053e-015 -5.96354e-016
rhumerus -296.762 254.899 -87.3954
rradius 13.8601
rwrist 106.044
rhand -20.3667 -30.3676
rfingers 7.12502
rthumb 185.986 119.737
lclavicle -9.42053e-015 -5.96354e-016
lhumerus -28.0524 47.0308 6.62363
lradius 12.9268
lwrist -39.3403
lhand -15.2431 22.2099
lfingers 7.12502
lthumb 10.9303 51.9054
rfemur -10.1787 -2.25084 21.4762
rtibia 36.4791
rfoot -23.153 -7.03201
rtoes -16.1308
lfemur -10.8024 -1.26769 -15.4378
ltibia 37.0496
lfoot -19.3055 -7.90004
ltoes -18.785
1221
root -15.1211 17.6146 1.32187 125.977 -88.2012 -125.217
lowerback 6.88512 -0.758776 3.25961
upperback -2.20144 -0.737633 -0.423293
thorax -6.21676 -0.499626 -2.1847
lowerneck -1.26123 -0.115675 3.52431
upperneck -6.38359 -0.274434 -1.07436
head -1.78288 -0.231262 -0.926751
rclavicle 6.86273e-015 -1.19271e-015
rhumerus -298.371 254.801 -85.8407
rradius 13.8827
rwrist 106.472
rhand -20.2796 -30.218
rfingers 7.12502
rthumb 186.07 119.889
lclavicle 6.86273e-015 -1.19271e-015
lhumerus -29.0845 49.4037 5.12582
lradius 12.6144
lwrist -41.8558
lhand -15.2837 21.8683
lfingers 7.12502
lthumb 10.8911 51.5659
rfemur -10.2346 -1.86917 21.0361
rtibia 36.3471
rfoot -23.1004 -7.28512
rtoes -16.2461
lfemur -10.9248 -1.29111 -15.9128
ltibia 37.121
lfoot -19.2141 -8.11764
ltoes -16.967
1222
root -15.1241 17.6188 1.3612 133.56 -88.4387 -132.625
lowerback 6.69965 -0.74698 3.09089
upperback -2.19013 -0.750412 -0.534527
thorax -6.09816 -0.499824 -2.20608
lowerneck -1.44873 -0.179906 3.55349
upperneck -6.41076 -0.375136 -1.168
head -1.76217 -0.28231 -0.959926
rclavicle -2.74105e-015 1.78906e-015
rhumerus -298.931 254.742 -85.3477
rradius 13.8822
rwrist 106.469
rhand -20.2723 -30.0503
rfingers 7.12502
rthumb 186.077 120.057
lclavicle -2.74105e-015 1.78906e-015
lhumerus -29.5515 50.6062 4.43982
lradius 12.4368
lwrist -43.0036
lhand -15.3628 21.6267
lfingers 7.12502
lthumb 10.8148 51.3282
rfemur -10.4255 -1.73418 20.5546
rtibia 36.3654
rfoot -23.0604 -7.42115
rtoes -16.5453
lfemur -11.0876 -1.20206 -16.4066
ltibia 37.0642
lfoot -19.1299 -7.984
ltoes -18.002
